<svg width="101" height="124" viewBox="0 0 101 124" fill="none" xmlns="http://www.w3.org/2000/svg">
<g clip-path="url(#clip0_410_21)">
<path d="M25.2535 124C39.1887 124 50.4984 114.742 50.4984 103.334V82.667H25.2535C11.3183 82.667 0.00854492 91.9257 0.00854492 103.334C0.00854492 114.742 11.3183 124 25.2535 124Z" fill="#0ACF83"/>
<path d="M0.00854492 61.9997C0.00854492 50.5917 11.3183 41.333 25.2535 41.333H50.4984V82.6664H25.2535C11.3183 82.6664 0.00854492 73.4077 0.00854492 61.9997Z" fill="#A259FF"/>
<path d="M0.00561523 20.6667C0.00561523 9.25867 11.3154 0 25.2506 0H50.4955V41.3333H25.2506C11.3154 41.3333 0.00561523 32.0747 0.00561523 20.6667Z" fill="#F24E1E"/>
<path d="M50.5 0H75.745C89.6802 0 100.99 9.25867 100.99 20.6667C100.99 32.0747 89.6802 41.3333 75.745 41.3333H50.5V0Z" fill="#FF7262"/>
<path d="M100.99 61.9997C100.99 73.4077 89.6802 82.6664 75.745 82.6664C61.8097 82.6664 50.5 73.4077 50.5 61.9997C50.5 50.5917 61.8097 41.333 75.745 41.333C89.6802 41.333 100.99 50.5917 100.99 61.9997Z" fill="#1ABCFE"/>
</g>
<defs>
<clipPath id="clip0_410_21">
<rect width="101" height="124" fill="white"/>
</clipPath>
</defs>
</svg>
