<svg width="143" height="134" viewBox="0 0 143 134" fill="none" xmlns="http://www.w3.org/2000/svg">
<path d="M0.516602 66.6571C0.516602 77.8953 11.0165 88.3866 27.5705 94.3001C24.2648 111.693 26.978 125.712 36.0405 131.175C45.3558 136.789 59.2334 132.903 72.405 120.869C85.2444 132.417 98.2208 136.961 107.275 131.483C116.581 125.853 119.412 110.883 116.015 92.947C133.257 86.9891 142.901 78.0432 142.901 66.6571C142.901 55.6794 132.382 46.1822 116.051 40.3065C119.708 21.6292 116.609 7.95061 107.172 2.26249C98.0729 -3.22122 84.9458 1.55839 71.9177 13.4084C58.3641 0.830552 45.3665 -3.00961 35.938 2.69509C26.848 8.19439 24.2541 22.4679 27.5705 40.1831C11.5755 46.0117 0.516602 55.7233 0.516602 66.6571Z" fill="white"/>
<path d="M112.591 46.1404C111.279 45.6685 109.92 45.222 108.52 44.7998C108.75 43.8186 108.961 42.8501 109.149 41.8981C112.23 26.2656 110.216 13.672 103.336 9.52563C96.7395 5.54982 85.9512 9.69524 75.0556 19.6055C74.0078 20.5584 72.9571 21.5674 71.9069 22.6248C71.2071 21.9252 70.5085 21.2491 69.8117 20.6024C58.3927 10.0058 46.9469 5.54018 40.0741 9.69853C33.4838 13.6859 31.5321 25.5251 34.3058 40.3401C34.5736 41.771 34.8867 43.2324 35.2408 44.7181C33.6209 45.1987 32.057 45.7111 30.5607 46.2561C17.1732 51.1343 8.62329 58.7797 8.62329 66.7099C8.62329 74.9003 17.8016 83.1153 31.7457 88.0966C32.8461 88.4896 33.988 88.8613 35.1647 89.2142C34.7827 90.8211 34.4505 92.3958 34.1716 93.9317C31.527 108.49 33.5923 120.049 40.1651 124.011C46.9541 128.103 58.3481 123.897 69.443 113.761C70.3199 112.96 71.2 112.11 72.0816 111.22C73.2243 112.37 74.3652 113.458 75.5001 114.479C86.2467 124.144 96.8608 128.047 103.428 124.074C110.21 119.971 112.414 107.553 109.552 92.4448C109.334 91.2909 109.08 90.1121 108.794 88.9124C109.594 88.6651 110.38 88.4099 111.146 88.1446C125.642 83.1247 135.074 75.0096 135.074 66.7099C135.074 58.751 126.248 51.0541 112.591 46.1404Z" fill="#53C1DE"/>
<path d="M109.447 82.7855C108.755 83.0247 108.046 83.2559 107.323 83.4801C105.722 78.1851 103.563 72.5546 100.919 66.7373C103.442 61.0586 105.518 55.5001 107.074 50.2394C108.367 50.6306 109.623 51.0432 110.832 51.4787C122.534 55.6888 129.672 61.9135 129.672 66.7098C129.672 71.8188 121.963 78.4509 109.447 82.7855ZM104.253 93.5411C105.518 100.222 105.699 106.262 104.861 110.984C104.108 115.226 102.593 118.055 100.721 119.188C96.7356 121.599 88.2136 118.465 79.023 110.199C77.9694 109.252 76.9081 108.24 75.8435 107.169C79.4065 103.096 82.9675 98.3617 86.4429 93.1034C92.5559 92.5364 98.3312 91.6096 103.569 90.3442C103.827 91.4317 104.056 92.4983 104.253 93.5411ZM51.733 118.771C47.8395 120.209 44.7386 120.25 42.8641 119.12C38.8755 116.716 37.2173 107.434 39.4792 94.9846C39.7382 93.5588 40.0466 92.0942 40.402 90.5971C45.582 91.7943 51.315 92.6557 57.4426 93.1749C60.9414 98.3203 64.6053 103.05 68.2975 107.191C67.4908 108.005 66.6873 108.78 65.8882 109.51C60.9822 113.992 56.0657 117.172 51.733 118.771ZM33.4927 82.7542C27.3269 80.5516 22.2349 77.689 18.7446 74.5652C15.6083 71.7581 14.0249 68.9712 14.0249 66.7098C14.0249 61.8975 20.8896 55.7593 32.3387 51.5873C33.7279 51.0811 35.1822 50.604 36.6913 50.1559C38.2736 55.5354 40.3493 61.1598 42.8542 66.8472C40.3169 72.6191 38.2117 78.3331 36.6139 83.7756C35.538 83.4524 34.4957 83.1122 33.4927 82.7542ZM39.607 39.2558C37.2306 26.5627 38.8089 16.9874 42.7804 14.5847C47.0108 12.025 56.3653 15.6745 66.2247 24.8242C66.8549 25.409 67.4876 26.0211 68.1221 26.6544C64.4482 30.7775 60.8178 35.4715 57.35 40.5865C51.403 41.1626 45.7103 42.0881 40.4763 43.3273C40.1472 41.9439 39.8557 40.5847 39.607 39.2558ZM94.1519 53.3324C92.9007 51.0736 91.6162 48.8682 90.3067 46.723C94.3412 47.2561 98.2067 47.9637 101.837 48.8296C100.747 52.4801 99.3886 56.2969 97.7897 60.2096C96.6427 57.9337 95.4295 55.6389 94.1519 53.3324ZM71.9086 30.6892C74.4003 33.5105 76.8955 36.6604 79.3498 40.0779C76.8766 39.9559 74.3728 39.8923 71.8483 39.8923C69.3477 39.8923 66.8624 39.9544 64.4045 40.0744C66.8612 36.6886 69.3781 33.543 71.9086 30.6892ZM49.5229 53.3714C48.273 55.6365 47.0824 57.9189 45.9534 60.2054C44.3803 56.3063 43.0345 52.4721 41.9352 48.7699C45.543 47.9261 49.3903 47.2361 53.3992 46.7132C52.0712 48.8781 50.7761 51.0997 49.5229 53.3709V53.3714ZM53.5147 87.1092C49.3728 86.6262 45.4676 85.9718 41.8607 85.1513C42.9776 81.3829 44.353 77.4669 45.9594 73.4838C47.0914 75.7687 48.2868 78.0519 49.5443 80.322H49.5445C50.8254 82.6347 52.1525 84.9 53.5147 87.1092ZM72.0581 103.128C69.4978 100.241 66.9441 97.0477 64.45 93.6124C66.8711 93.7117 69.3396 93.7625 71.8483 93.7625C74.4257 93.7625 76.9736 93.7018 79.4815 93.5851C77.0191 97.0822 74.5328 100.281 72.0581 103.128ZM97.8412 73.2808C99.5313 77.3069 100.956 81.2025 102.087 84.9066C98.421 85.7808 94.4625 86.4849 90.2918 87.008C91.6045 84.8339 92.9003 82.5907 94.1735 80.2832C95.4617 77.9487 96.6847 75.6106 97.8412 73.2808ZM89.4944 77.4627C87.5177 81.0447 85.4884 84.4641 83.4282 87.6919C79.6759 87.9723 75.7994 88.1167 71.8483 88.1167C67.9133 88.1167 64.0856 87.989 60.3996 87.7389C58.2564 84.4688 56.183 81.0393 54.219 77.4935H54.2194C52.2605 73.9573 50.4577 70.3913 48.824 66.8453C50.4572 63.291 52.2554 59.721 54.203 56.1912L54.2025 56.192C56.1553 52.6528 58.2105 49.2399 60.3339 45.9903C64.0946 45.6931 67.9508 45.5381 71.8481 45.5381H71.8483C75.7631 45.5381 79.6244 45.6943 83.3839 45.994C85.4749 49.2199 87.5161 52.6217 89.4766 56.1614C91.4593 59.7408 93.2806 63.287 94.9278 66.7651C93.2856 70.3029 91.4683 73.8849 89.4944 77.4627ZM100.638 14.4167C104.872 16.9688 106.519 27.2616 103.858 40.7585C103.689 41.6197 103.498 42.4969 103.29 43.3859C98.044 42.1208 92.3472 41.1793 86.3829 40.5945C82.9083 35.4232 79.3077 30.7219 75.6936 26.6518C76.6653 25.6749 77.6356 24.7433 78.6018 23.8642C87.9372 15.3732 96.6625 12.0208 100.638 14.4167Z" fill="white"/>
<path d="M71.8502 54.9102C78.0862 54.9102 83.1417 60.1937 83.1417 66.7115C83.1417 73.2291 78.0862 78.5128 71.8502 78.5128C65.6141 78.5128 60.5586 73.2291 60.5586 66.7115C60.5586 60.1937 65.6141 54.9102 71.8502 54.9102Z" fill="#53C1DE"/>
</svg>
